<?xml version="1.0" standalone="no"?>
<!DOCTYPE svg PUBLIC "-//W3C//DTD SVG 20010904//EN"
 "http://www.w3.org/TR/2001/REC-SVG-20010904/DTD/svg10.dtd">
<svg version="1.0" xmlns="http://www.w3.org/2000/svg"
 width="256.000000pt" height="256.000000pt" viewBox="0 0 256.000000 256.000000"
 preserveAspectRatio="xMidYMid meet">
<metadata>
Created by potrace 1.14, written by Peter Selinger 2001-2017
</metadata>
<g transform="translate(0.000000,256.000000) scale(0.100000,-0.100000)"
fill="#000000" stroke="none">
<path d="M30 2508 c0 -7 0 -564 0 -1238 0 -674 0 -1231 0 -1238 0 -10 33 -12
148 -10 l147 3 1 660 c0 363 4 673 7 688 5 16 21 36 40 47 31 19 55 20 896 20
l864 0 33 -25 34 -26 2 -682 3 -682 140 -3 141 -3 24 28 25 28 -5 1160 -5
1160 -65 62 -65 63 -166 0 c-164 0 -166 0 -189 -25 -31 -33 -77 -34 -82 -2 -3
19 -10 22 -50 25 l-47 3 -3 -386 -3 -387 -24 -19 c-22 -18 -46 -19 -543 -19
-546 0 -565 1 -582 45 -3 9 -6 184 -6 390 l-1 375 -160 0 c-157 0 -160 0 -187
-25 -17 -16 -38 -25 -59 -25 -26 0 -34 5 -39 25 -6 25 -7 25 -115 25 -81 0
-109 -3 -109 -12z m166 -2222 c3 -13 4 -35 2 -47 -3 -22 -8 -24 -63 -24 l-60
0 -3 33 c-5 47 12 62 69 62 43 0 49 -3 55 -24z m2252 12 c5 -7 9 -29 8 -48
l-1 -35 -67 -3 -68 -3 0 44 c0 24 3 47 7 50 12 12 110 7 121 -5z"/>
<path d="M1397 2458 c-15 -12 -18 -44 -23 -283 -4 -215 -3 -275 8 -295 13 -25
15 -25 158 -27 81 -2 152 1 160 7 13 8 15 54 18 293 3 251 1 287 -13 301 -14
13 -41 16 -154 16 -94 0 -143 -4 -154 -12z"/>
<path d="M482 1380 c-50 -3 -76 -10 -82 -20 -5 -8 -10 -43 -10 -77 l0 -63 875
0 875 0 0 69 c0 46 -5 72 -14 80 -10 8 -227 12 -792 14 -429 1 -812 0 -852 -3z"/>
</g>
</svg>
